<?xml version="1.0" encoding="UTF-8"?>
<svg width="128" height="128" viewBox="0 0 128 128" fill="none" xmlns="http://www.w3.org/2000/svg">
    <circle cx="16" cy="16" r="4" fill="#FF4D8D" fill-opacity="0.3"/>
    <circle cx="48" cy="16" r="4" fill="#4CAF50" fill-opacity="0.3"/>
    <circle cx="80" cy="16" r="4" fill="#2196F3" fill-opacity="0.3"/>
    <circle cx="112" cy="16" r="4" fill="#FFD600" fill-opacity="0.3"/>
    
    <rect x="12" y="44" width="8" height="8" transform="rotate(45 12 44)" fill="#FF4D8D" fill-opacity="0.3"/>
    <rect x="44" y="44" width="8" height="8" transform="rotate(45 44 44)" fill="#4CAF50" fill-opacity="0.3"/>
    <rect x="76" y="44" width="8" height="8" transform="rotate(45 76 44)" fill="#2196F3" fill-opacity="0.3"/>
    <rect x="108" y="44" width="8" height="8" transform="rotate(45 108 44)" fill="#FFD600" fill-opacity="0.3"/>
    
    <path d="M16 80L20 88H12L16 80Z" fill="#FF4D8D" fill-opacity="0.3"/>
    <path d="M48 80L52 88H44L48 80Z" fill="#4CAF50" fill-opacity="0.3"/>
    <path d="M80 80L84 88H76L80 80Z" fill="#2196F3" fill-opacity="0.3"/>
    <path d="M112 80L116 88H108L112 80Z" fill="#FFD600" fill-opacity="0.3"/>
</svg> 